# xmcd
#
# Track frame offsets:
#	150
#	10696
#	26100
#	40101
#	55746
#	71656
#	87159
#	104420
#	117778
#	131194
#	149471
#	164698
#	180862
#	199795
#
# Disc length: 2888 seconds
#
# Revision: 1
# Processed by: cddbd v1.5.1PL2 Copyright (c) Steve Scherf et al.
# Submitted via: audiograbber 1.83.01
#
DISCID=bf0b460e
DTITLE=Rusty Lawrence - Hymn's and others, 10-21-04
DYEAR=2004
DGENRE=Gospel
TTITLE0=Abide with Me
TTITLE1=Mary, Mary Marry Me
TTITLE2=Green Green Grass of Home
TTITLE3=I will Leave in Jesus' Hands
TTITLE4=Gentlemen, and Mothers, Daddys, and Friends
TTITLE5=One day at a time
TTITLE6=Please remember my Friend, Lord
TTITLE7=Red River Valley
TTITLE8=Songs of Zion
TTITLE9=Echo's of Seasons Ago
TTITLE10=Welcome Home
TTITLE11=Jesus Along Can Save Me
TTITLE12=With the Lord it Will be Better
TTITLE13=Wind Beneath My Wings
EXTD=
EXTT0=
EXTT1=
EXTT2=
EXTT3=
EXTT4=
EXTT5=
EXTT6=
EXTT7=
EXTT8=
EXTT9=
EXTT10=
EXTT11=
EXTT12=
EXTT13=
PLAYORDER=
